# xmcd CD database file
#
# Track frame offsets:
#	150
#	19329
#	47929
#	65997
#	87334
#	105679
#	142470
#	166510
#	179297
#	200646
#
# Disc length: 2921 seconds
#
# Revision: 2
# Processed by: cddbd v1.4b42PL0 Copyright (c) Steve Scherf et al.
# Submitted via: CDex 1.40Beta4
#
DISCID=970b670a
DTITLE=Nitro - Down In The Blues
DYEAR=2001
DGENRE=Blues
TTITLE0=Can't You See
TTITLE1=Blue Waters
TTITLE2=Miss You Bad
TTITLE3=Don't You Lie
TTITLE4=Jump Down
TTITLE5=Sun Is Sinken
TTITLE6=2 By 9
TTITLE7=Cruisin
TTITLE8=I'm Leaving
TTITLE9=Mellow Down Easy
EXTD=YEAR: 2001 ID3G:   0
EXTT0=
EXTT1=
EXTT2=
EXTT3=
EXTT4=
EXTT5=
EXTT6=
EXTT7=
EXTT8=
EXTT9=
PLAYORDER=
